<mxfile host="app.diagrams.net" modified="2021-09-18T09:22:49.225Z" agent="5.0 (Windows NT 10.0; Win64; x64) AppleWebKit/537.36 (KHTML, like Gecko) Chrome/93.0.4577.82 Safari/537.36" etag="EEOvRufXKpVoxU_xtwBs" version="15.2.9" type="github">
  <diagram id="R2lEEEUBdFMjLlhIrx00" name="Page-1">
    <mxGraphModel dx="1419" dy="334" grid="1" gridSize="10" guides="1" tooltips="1" connect="1" arrows="1" fold="1" page="1" pageScale="1" pageWidth="850" pageHeight="1100" math="0" shadow="0" extFonts="Permanent Marker^https://fonts.googleapis.com/css?family=Permanent+Marker">
      <root>
        <mxCell id="0" />
        <mxCell id="1" parent="0" />
        <mxCell id="TMfExlqz-7Yg1qyMPJeV-1" value="&lt;font style=&quot;font-size: 14px&quot;&gt;RETAILER&lt;/font&gt;" style="whiteSpace=wrap;html=1;align=center;" vertex="1" parent="1">
          <mxGeometry x="60" y="90" width="100" height="40" as="geometry" />
        </mxCell>
        <mxCell id="TMfExlqz-7Yg1qyMPJeV-2" value="&lt;span style=&quot;font-size: 14px&quot;&gt;TecR-#&lt;/span&gt;" style="ellipse;whiteSpace=wrap;html=1;align=center;fontStyle=4;" vertex="1" parent="1">
          <mxGeometry x="60" y="20" width="100" height="40" as="geometry" />
        </mxCell>
        <mxCell id="TMfExlqz-7Yg1qyMPJeV-3" value="" style="endArrow=none;html=1;rounded=0;exitX=0.5;exitY=1;exitDx=0;exitDy=0;entryX=0.5;entryY=0;entryDx=0;entryDy=0;" edge="1" parent="1" source="TMfExlqz-7Yg1qyMPJeV-2" target="TMfExlqz-7Yg1qyMPJeV-1">
          <mxGeometry relative="1" as="geometry">
            <mxPoint x="75" y="290" as="sourcePoint" />
            <mxPoint x="235" y="290" as="targetPoint" />
          </mxGeometry>
        </mxCell>
        <mxCell id="TMfExlqz-7Yg1qyMPJeV-4" value="&lt;font style=&quot;font-size: 14px&quot;&gt;CENTRAL_WAREHOUSE&lt;/font&gt;" style="whiteSpace=wrap;html=1;align=center;" vertex="1" parent="1">
          <mxGeometry x="330" y="90" width="190" height="40" as="geometry" />
        </mxCell>
        <mxCell id="TMfExlqz-7Yg1qyMPJeV-5" value="&lt;span style=&quot;font-size: 14px&quot;&gt;WH-ID&lt;/span&gt;" style="ellipse;whiteSpace=wrap;html=1;align=center;fontStyle=4;" vertex="1" parent="1">
          <mxGeometry x="375.25" y="20" width="100" height="40" as="geometry" />
        </mxCell>
        <mxCell id="TMfExlqz-7Yg1qyMPJeV-6" value="" style="endArrow=none;html=1;rounded=0;exitX=0.5;exitY=1;exitDx=0;exitDy=0;entryX=0.5;entryY=0;entryDx=0;entryDy=0;" edge="1" parent="1" source="TMfExlqz-7Yg1qyMPJeV-5" target="TMfExlqz-7Yg1qyMPJeV-4">
          <mxGeometry relative="1" as="geometry">
            <mxPoint x="135.35533905932743" y="214.14213562373106" as="sourcePoint" />
            <mxPoint x="195" y="250" as="targetPoint" />
          </mxGeometry>
        </mxCell>
        <mxCell id="TMfExlqz-7Yg1qyMPJeV-7" value="&lt;font style=&quot;font-size: 14px&quot;&gt;BRANCH&lt;/font&gt;" style="whiteSpace=wrap;html=1;align=center;" vertex="1" parent="1">
          <mxGeometry x="57.5" y="210" width="105" height="40" as="geometry" />
        </mxCell>
        <mxCell id="TMfExlqz-7Yg1qyMPJeV-8" value="&lt;span style=&quot;font-size: 14px&quot;&gt;B-#&lt;/span&gt;" style="ellipse;whiteSpace=wrap;html=1;align=center;fontStyle=4;" vertex="1" parent="1">
          <mxGeometry x="-60" y="210" width="100" height="40" as="geometry" />
        </mxCell>
        <mxCell id="TMfExlqz-7Yg1qyMPJeV-9" value="" style="endArrow=none;html=1;rounded=0;exitX=1;exitY=0.5;exitDx=0;exitDy=0;entryX=0;entryY=0.5;entryDx=0;entryDy=0;" edge="1" parent="1" source="TMfExlqz-7Yg1qyMPJeV-8" target="TMfExlqz-7Yg1qyMPJeV-7">
          <mxGeometry relative="1" as="geometry">
            <mxPoint x="-299.64466094067257" y="214.14213562373106" as="sourcePoint" />
            <mxPoint x="-240" y="250" as="targetPoint" />
          </mxGeometry>
        </mxCell>
        <mxCell id="TMfExlqz-7Yg1qyMPJeV-10" value="&lt;font style=&quot;font-size: 14px&quot;&gt;HAVE&lt;/font&gt;" style="shape=rhombus;perimeter=rhombusPerimeter;whiteSpace=wrap;html=1;align=center;" vertex="1" parent="1">
          <mxGeometry x="68.75" y="150" width="82.5" height="40" as="geometry" />
        </mxCell>
        <mxCell id="TMfExlqz-7Yg1qyMPJeV-11" value="&lt;font style=&quot;font-size: 14px&quot;&gt;HAVE&lt;/font&gt;" style="shape=rhombus;perimeter=rhombusPerimeter;whiteSpace=wrap;html=1;align=center;" vertex="1" parent="1">
          <mxGeometry x="200" y="90" width="82.5" height="40" as="geometry" />
        </mxCell>
        <mxCell id="TMfExlqz-7Yg1qyMPJeV-12" value="" style="shape=link;html=1;rounded=0;exitX=0.5;exitY=1;exitDx=0;exitDy=0;entryX=0.5;entryY=0;entryDx=0;entryDy=0;" edge="1" parent="1" source="TMfExlqz-7Yg1qyMPJeV-1" target="TMfExlqz-7Yg1qyMPJeV-10">
          <mxGeometry relative="1" as="geometry">
            <mxPoint x="220" y="360" as="sourcePoint" />
            <mxPoint x="380" y="360" as="targetPoint" />
          </mxGeometry>
        </mxCell>
        <mxCell id="TMfExlqz-7Yg1qyMPJeV-13" value="1" style="resizable=0;html=1;align=right;verticalAlign=bottom;" connectable="0" vertex="1" parent="TMfExlqz-7Yg1qyMPJeV-12">
          <mxGeometry x="1" relative="1" as="geometry">
            <mxPoint x="9" as="offset" />
          </mxGeometry>
        </mxCell>
        <mxCell id="TMfExlqz-7Yg1qyMPJeV-14" value="" style="shape=link;html=1;rounded=0;exitX=0.5;exitY=0;exitDx=0;exitDy=0;entryX=0.5;entryY=1;entryDx=0;entryDy=0;" edge="1" parent="1" source="TMfExlqz-7Yg1qyMPJeV-7" target="TMfExlqz-7Yg1qyMPJeV-10">
          <mxGeometry relative="1" as="geometry">
            <mxPoint x="220" y="360" as="sourcePoint" />
            <mxPoint x="380" y="360" as="targetPoint" />
          </mxGeometry>
        </mxCell>
        <mxCell id="TMfExlqz-7Yg1qyMPJeV-15" value="N" style="resizable=0;html=1;align=right;verticalAlign=bottom;" connectable="0" vertex="1" parent="TMfExlqz-7Yg1qyMPJeV-14">
          <mxGeometry x="1" relative="1" as="geometry">
            <mxPoint x="18" y="10" as="offset" />
          </mxGeometry>
        </mxCell>
        <mxCell id="TMfExlqz-7Yg1qyMPJeV-16" value="" style="shape=link;html=1;rounded=0;exitX=1;exitY=0.5;exitDx=0;exitDy=0;entryX=0;entryY=0.5;entryDx=0;entryDy=0;" edge="1" parent="1" source="TMfExlqz-7Yg1qyMPJeV-1" target="TMfExlqz-7Yg1qyMPJeV-11">
          <mxGeometry relative="1" as="geometry">
            <mxPoint x="120" y="140" as="sourcePoint" />
            <mxPoint x="82.5" y="180" as="targetPoint" />
          </mxGeometry>
        </mxCell>
        <mxCell id="TMfExlqz-7Yg1qyMPJeV-17" value="1" style="resizable=0;html=1;align=right;verticalAlign=bottom;" connectable="0" vertex="1" parent="TMfExlqz-7Yg1qyMPJeV-16">
          <mxGeometry x="1" relative="1" as="geometry">
            <mxPoint y="-10" as="offset" />
          </mxGeometry>
        </mxCell>
        <mxCell id="TMfExlqz-7Yg1qyMPJeV-18" value="" style="shape=link;html=1;rounded=0;exitX=0;exitY=0.5;exitDx=0;exitDy=0;entryX=1;entryY=0.5;entryDx=0;entryDy=0;" edge="1" parent="1" source="TMfExlqz-7Yg1qyMPJeV-4" target="TMfExlqz-7Yg1qyMPJeV-11">
          <mxGeometry relative="1" as="geometry">
            <mxPoint x="-25" y="230" as="sourcePoint" />
            <mxPoint y="180" as="targetPoint" />
          </mxGeometry>
        </mxCell>
        <mxCell id="TMfExlqz-7Yg1qyMPJeV-19" value="N" style="resizable=0;html=1;align=right;verticalAlign=bottom;" connectable="0" vertex="1" parent="TMfExlqz-7Yg1qyMPJeV-18">
          <mxGeometry x="1" relative="1" as="geometry">
            <mxPoint x="10" as="offset" />
          </mxGeometry>
        </mxCell>
        <mxCell id="TMfExlqz-7Yg1qyMPJeV-20" value="&lt;font style=&quot;font-size: 14px&quot;&gt;PRODUCT&lt;/font&gt;" style="whiteSpace=wrap;html=1;align=center;" vertex="1" parent="1">
          <mxGeometry x="385.25" y="210" width="80" height="30" as="geometry" />
        </mxCell>
        <mxCell id="TMfExlqz-7Yg1qyMPJeV-23" value="&lt;font style=&quot;font-size: 14px&quot;&gt;STORE&lt;/font&gt;" style="shape=rhombus;perimeter=rhombusPerimeter;whiteSpace=wrap;html=1;align=center;" vertex="1" parent="1">
          <mxGeometry x="384" y="150" width="82.5" height="40" as="geometry" />
        </mxCell>
        <mxCell id="TMfExlqz-7Yg1qyMPJeV-24" value="" style="endArrow=none;html=1;rounded=0;entryX=0.5;entryY=1;entryDx=0;entryDy=0;exitX=0.5;exitY=0;exitDx=0;exitDy=0;" edge="1" parent="1" source="TMfExlqz-7Yg1qyMPJeV-23" target="TMfExlqz-7Yg1qyMPJeV-4">
          <mxGeometry relative="1" as="geometry">
            <mxPoint x="270" y="220" as="sourcePoint" />
            <mxPoint x="430" y="220" as="targetPoint" />
          </mxGeometry>
        </mxCell>
        <mxCell id="TMfExlqz-7Yg1qyMPJeV-25" value="M" style="resizable=0;html=1;align=left;verticalAlign=bottom;" connectable="0" vertex="1" parent="TMfExlqz-7Yg1qyMPJeV-24">
          <mxGeometry x="-1" relative="1" as="geometry" />
        </mxCell>
        <mxCell id="TMfExlqz-7Yg1qyMPJeV-27" value="" style="endArrow=none;html=1;rounded=0;entryX=0.5;entryY=1;entryDx=0;entryDy=0;exitX=0.5;exitY=0;exitDx=0;exitDy=0;" edge="1" parent="1" source="TMfExlqz-7Yg1qyMPJeV-20" target="TMfExlqz-7Yg1qyMPJeV-23">
          <mxGeometry relative="1" as="geometry">
            <mxPoint x="270" y="220" as="sourcePoint" />
            <mxPoint x="430" y="220" as="targetPoint" />
          </mxGeometry>
        </mxCell>
        <mxCell id="TMfExlqz-7Yg1qyMPJeV-28" value="N" style="resizable=0;html=1;align=right;verticalAlign=bottom;" connectable="0" vertex="1" parent="TMfExlqz-7Yg1qyMPJeV-27">
          <mxGeometry x="1" relative="1" as="geometry">
            <mxPoint x="15" y="10" as="offset" />
          </mxGeometry>
        </mxCell>
        <mxCell id="TMfExlqz-7Yg1qyMPJeV-29" value="&lt;span style=&quot;font-size: 14px&quot;&gt;Prod-ID&lt;/span&gt;" style="ellipse;whiteSpace=wrap;html=1;align=center;fontStyle=4;" vertex="1" parent="1">
          <mxGeometry x="497" y="205" width="80" height="40" as="geometry" />
        </mxCell>
        <mxCell id="TMfExlqz-7Yg1qyMPJeV-30" value="" style="endArrow=none;html=1;rounded=0;exitX=0;exitY=0.5;exitDx=0;exitDy=0;entryX=1;entryY=0.5;entryDx=0;entryDy=0;" edge="1" parent="1" source="TMfExlqz-7Yg1qyMPJeV-29" target="TMfExlqz-7Yg1qyMPJeV-20">
          <mxGeometry relative="1" as="geometry">
            <mxPoint x="250.10533905932743" y="394.14213562373106" as="sourcePoint" />
            <mxPoint x="539.75" y="270" as="targetPoint" />
          </mxGeometry>
        </mxCell>
        <mxCell id="TMfExlqz-7Yg1qyMPJeV-31" value="&lt;font style=&quot;font-size: 14px&quot;&gt;BE_PLACED_INTO&lt;/font&gt;" style="shape=rhombus;perimeter=rhombusPerimeter;whiteSpace=wrap;html=1;align=center;" vertex="1" parent="1">
          <mxGeometry x="333" y="260" width="184.75" height="50" as="geometry" />
        </mxCell>
        <mxCell id="TMfExlqz-7Yg1qyMPJeV-32" value="&lt;font style=&quot;font-size: 14px&quot;&gt;PRODUCT_GROUP&lt;/font&gt;" style="whiteSpace=wrap;html=1;align=center;" vertex="1" parent="1">
          <mxGeometry x="353.63" y="340" width="143.5" height="30" as="geometry" />
        </mxCell>
        <mxCell id="TMfExlqz-7Yg1qyMPJeV-34" value="&lt;span style=&quot;font-size: 14px&quot;&gt;ProdGr&lt;/span&gt;" style="ellipse;whiteSpace=wrap;html=1;align=center;fontStyle=4;" vertex="1" parent="1">
          <mxGeometry x="514.75" y="337.5" width="68.25" height="35" as="geometry" />
        </mxCell>
        <mxCell id="TMfExlqz-7Yg1qyMPJeV-35" value="" style="endArrow=none;html=1;rounded=0;exitX=0;exitY=0.5;exitDx=0;exitDy=0;entryX=1;entryY=0.5;entryDx=0;entryDy=0;" edge="1" parent="1" source="TMfExlqz-7Yg1qyMPJeV-34" target="TMfExlqz-7Yg1qyMPJeV-32">
          <mxGeometry relative="1" as="geometry">
            <mxPoint x="281.85533905932743" y="524.1421356237311" as="sourcePoint" />
            <mxPoint x="497" y="355" as="targetPoint" />
          </mxGeometry>
        </mxCell>
        <mxCell id="TMfExlqz-7Yg1qyMPJeV-38" value="" style="shape=link;html=1;rounded=0;exitX=0.5;exitY=1;exitDx=0;exitDy=0;entryX=0.5;entryY=0;entryDx=0;entryDy=0;" edge="1" parent="1" source="TMfExlqz-7Yg1qyMPJeV-20" target="TMfExlqz-7Yg1qyMPJeV-31">
          <mxGeometry relative="1" as="geometry">
            <mxPoint x="120" y="220" as="sourcePoint" />
            <mxPoint x="120" y="200" as="targetPoint" />
          </mxGeometry>
        </mxCell>
        <mxCell id="TMfExlqz-7Yg1qyMPJeV-39" value="N" style="resizable=0;html=1;align=right;verticalAlign=bottom;" connectable="0" vertex="1" parent="TMfExlqz-7Yg1qyMPJeV-38">
          <mxGeometry x="1" relative="1" as="geometry">
            <mxPoint x="18" as="offset" />
          </mxGeometry>
        </mxCell>
        <mxCell id="TMfExlqz-7Yg1qyMPJeV-40" value="" style="endArrow=none;html=1;rounded=0;exitX=0.5;exitY=0;exitDx=0;exitDy=0;entryX=0.5;entryY=1;entryDx=0;entryDy=0;" edge="1" parent="1" source="TMfExlqz-7Yg1qyMPJeV-32" target="TMfExlqz-7Yg1qyMPJeV-31">
          <mxGeometry relative="1" as="geometry">
            <mxPoint x="270" y="240" as="sourcePoint" />
            <mxPoint x="430" y="240" as="targetPoint" />
          </mxGeometry>
        </mxCell>
        <mxCell id="TMfExlqz-7Yg1qyMPJeV-41" value="1" style="resizable=0;html=1;align=right;verticalAlign=bottom;" connectable="0" vertex="1" parent="TMfExlqz-7Yg1qyMPJeV-40">
          <mxGeometry x="1" relative="1" as="geometry">
            <mxPoint x="15" y="20" as="offset" />
          </mxGeometry>
        </mxCell>
      </root>
    </mxGraphModel>
  </diagram>
</mxfile>
